<svg width="22" height="29" viewBox="0 0 22 29" fill="none" xmlns="http://www.w3.org/2000/svg">
<path d="M21.6667 26C21.6667 27.4728 20.4728 28.6667 19 28.6667C17.5272 28.6667 16.3333 27.4728 16.3333 26C16.3333 24.5272 17.5272 23.3333 19 23.3333C20.4728 23.3333 21.6667 24.5272 21.6667 26ZM0.999999 26L0.999999 26.5L0.499999 26.5L0.499999 26L0.999999 26ZM1.5 7.64949e-07L1.5 26L0.499999 26L0.499998 8.08661e-07L1.5 7.64949e-07ZM0.999999 25.5L19 25.5L19 26.5L0.999999 26.5L0.999999 25.5Z" fill="white"/>
</svg>
