<svg width="16" height="17" viewBox="0 0 16 17" fill="none" xmlns="http://www.w3.org/2000/svg">
<path fill-rule="evenodd" clip-rule="evenodd" d="M7.25134 13.4412C7.25134 13.8547 7.58654 14.1899 8.00004 14.1899C8.41354 14.1899 8.74875 13.8547 8.74875 13.4412L8.74875 9.24874L12.9413 9.24874C13.3548 9.24874 13.69 8.91353 13.69 8.50003C13.69 8.08653 13.3548 7.75132 12.9413 7.75132H8.74875V3.55879C8.74875 3.14529 8.41354 2.81008 8.00004 2.81008C7.58654 2.81008 7.25134 3.14529 7.25134 3.55879L7.25134 7.75132L3.05886 7.75132C2.64536 7.75132 2.31016 8.08653 2.31016 8.50003C2.31016 8.91353 2.64536 9.24874 3.05886 9.24874L7.25134 9.24874L7.25134 13.4412Z" fill="#B3B3B3"/>
</svg>
