<svg width="24" height="24" viewBox="0 0 24 24" fill="none" xmlns="http://www.w3.org/2000/svg">
<path d="M14.8789 18C14.8789 18.7956 14.5628 19.5587 14.0002 20.1213C13.4376 20.6839 12.6746 21 11.8789 21C11.0833 21 10.3202 20.6839 9.75759 20.1213C9.19498 19.5587 8.87891 18.7956 8.87891 18L11.8789 18H14.8789Z" fill="#B3B3B3"/>
<path fill-rule="evenodd" clip-rule="evenodd" d="M18.663 9.75C18.663 7.95979 17.9518 6.2429 16.6859 4.97703C15.4201 3.71116 13.7032 3 11.913 3C10.1227 3 8.40586 3.71116 7.13999 4.97703C5.87412 6.2429 5.16296 7.95979 5.16296 9.75V11.953C5.16296 12.5078 4.95646 13.0427 4.58368 13.4536C3.28165 14.8887 4.29993 17.1875 6.23767 17.1875H17.5882C19.5261 17.1875 20.5444 14.8885 19.2423 13.4533C18.8695 13.0424 18.663 12.5074 18.663 11.9526V9.75Z" fill="#B3B3B3"/>
</svg>
