<svg width="24" height="24" viewBox="0 0 24 24" fill="none" xmlns="http://www.w3.org/2000/svg">
<path fill-rule="evenodd" clip-rule="evenodd" d="M4.08703 10.2592C3.91014 9.81081 4.00791 9.29467 4.33477 8.95147L7.76333 5.35147C8.20964 4.88284 8.93326 4.88284 9.37957 5.35147C9.82588 5.8201 9.82588 6.5799 9.37957 7.04853L7.90198 8.6L18.8571 8.6C19.4883 8.6 20 9.13726 20 9.8C20 10.4627 19.4883 11 18.8571 11L5.14289 11C4.68065 11 4.26392 10.7076 4.08703 10.2592Z" fill="#FD8D81"/>
<path fill-rule="evenodd" clip-rule="evenodd" d="M19.913 13.7408C20.0899 14.1892 19.9921 14.7053 19.6652 15.0485L16.2367 18.6485C15.7904 19.1172 15.0667 19.1172 14.6204 18.6485C14.1741 18.1799 14.1741 17.4201 14.6204 16.9515L16.098 15.4L5.14286 15.4C4.51167 15.4 4 14.8627 4 14.2C4 13.5373 4.51167 13 5.14286 13L18.8571 13C19.3194 13 19.7361 13.2924 19.913 13.7408Z" fill="#FD8D81"/>
</svg>
