<svg width="24" height="24" viewBox="0 0 24 24" fill="none" xmlns="http://www.w3.org/2000/svg">
<path fill-rule="evenodd" clip-rule="evenodd" d="M6.27778 4H18.7222C19.7089 4 20.5 4.8 20.5 5.77778V18.2222C20.5 19.2 19.7089 20 18.7222 20H6.27778C5.29111 20 4.5 19.2 4.5 18.2222V5.77778C4.5 4.8 5.29111 4 6.27778 4ZM10.0152 15.7373C10.4057 16.1278 11.0389 16.1278 11.4294 15.7373L18.0956 9.07108C18.4421 8.72462 18.4431 8.1632 18.0978 7.81552C17.7509 7.4661 17.186 7.4651 16.8378 7.8133L10.7223 13.9289L8.15827 11.372C7.81179 11.0265 7.25093 11.0269 6.90494 11.3729C6.5586 11.7192 6.55859 12.2807 6.90493 12.6271L10.0152 15.7373Z" fill="currentColor"/>
</svg>
