<svg width="323" height="98" viewBox="0 0 323 98" fill="none" xmlns="http://www.w3.org/2000/svg">
<path d="M92.8803 27.168L99.8403 5.136C100.8 2.112 102.768 1.104 105.792 1.104C109.344 1.104 111.264 2.832 111.264 6.432V33.408C111.264 35.664 109.92 37.248 107.664 37.248C105.408 37.248 104.064 35.664 104.064 33.408V12.96H103.968L96.6243 34.416C96.0963 36.096 94.6563 37.008 92.8323 37.008C91.0083 37.008 89.5683 36.096 89.0403 34.416L81.6963 12.96H81.6003V33.408C81.6003 35.664 80.2563 37.248 78.0003 37.248C75.7443 37.248 74.4003 35.664 74.4003 33.408V6.432C74.4003 2.832 76.3203 1.104 79.8723 1.104C82.8963 1.104 84.8643 2.112 85.8243 5.136L92.7843 27.168H92.8803ZM141.527 36.96H124.151C120.983 36.96 119.447 35.376 119.447 32.208V6.144C119.447 2.976 120.983 1.392 124.151 1.392H140.951C143.351 1.392 145.031 2.208 145.031 4.608C145.031 7.008 143.351 7.824 140.951 7.824H127.559V15.504H140.087C142.343 15.504 143.927 16.464 143.927 18.72C143.927 20.976 142.343 21.936 140.087 21.936H127.559V30.528H141.527C143.927 30.528 145.607 31.296 145.607 33.696C145.607 36.096 143.927 36.96 141.527 36.96ZM181.016 12.432C181.016 16.8 179.096 20.16 175.784 22.032L180.872 32.064C181.736 33.792 181.64 35.952 179.576 37.056C177.512 38.112 175.304 37.248 174.344 35.424L167.912 23.616H160.184V33.216C160.184 35.616 158.504 37.248 156.104 37.248C153.704 37.248 152.072 35.616 152.072 33.216V6.144C152.072 2.928 153.608 1.392 156.776 1.392H168.872C176.216 1.392 181.016 5.568 181.016 12.432ZM160.184 7.776V17.232H167.096C170.744 17.232 173.096 15.84 173.096 12.432C173.096 9.024 170.792 7.776 167.096 7.776H160.184ZM216.829 12.432C216.829 16.8 214.909 20.16 211.597 22.032L216.685 32.064C217.549 33.792 217.453 35.952 215.389 37.056C213.325 38.112 211.117 37.248 210.157 35.424L203.725 23.616H195.997V33.216C195.997 35.616 194.317 37.248 191.917 37.248C189.517 37.248 187.885 35.616 187.885 33.216V6.144C187.885 2.928 189.421 1.392 192.589 1.392H204.685C212.029 1.392 216.829 5.568 216.829 12.432ZM195.997 7.776V17.232H202.909C206.557 17.232 208.909 15.84 208.909 12.432C208.909 9.024 206.605 7.776 202.909 7.776H195.997ZM237.137 37.248C234.737 37.248 233.105 35.568 233.105 33.168V23.136L222.017 6.816C220.769 4.944 221.345 2.88 222.881 1.824C224.609 0.623998 227.009 0.912 228.257 2.784L237.137 15.744L246.017 2.784C247.265 0.912 249.665 0.623998 251.393 1.824C252.929 2.88 253.505 4.944 252.257 6.816L241.169 23.136V33.168C241.169 35.568 239.537 37.248 237.137 37.248ZM0.110938 77.152C0.110938 67.12 6.25494 58.672 17.7269 58.672C24.3029 58.672 28.7669 61.408 31.2149 64.864C32.4149 66.592 32.4149 68.848 30.8789 70.048C29.3429 71.2 26.8469 71.248 25.2629 69.232C23.3909 66.928 21.0869 65.584 17.7269 65.584C12.5909 65.584 8.22294 69.472 8.22294 77.152C8.22294 84.832 12.5909 88.768 17.7269 88.768C21.1829 88.768 23.6789 87.616 25.4549 85.456C27.0389 83.488 29.3429 82.576 31.1669 83.872C33.1829 85.216 33.0389 87.424 31.6469 89.44C29.1989 92.944 24.7349 95.68 17.7269 95.68C6.25494 95.68 0.110938 87.184 0.110938 77.152ZM39.1972 91.216V63.136C39.1972 60.736 40.8292 59.104 43.2292 59.104C45.6772 59.104 47.2612 60.736 47.2612 63.136V73.072H61.1812V63.136C61.1812 60.736 62.8132 59.104 65.2132 59.104C67.6612 59.104 69.2452 60.736 69.2452 63.136V91.216C69.2452 93.616 67.6132 95.248 65.2132 95.248C62.8132 95.248 61.1812 93.616 61.1812 91.216V79.984H47.2612V91.216C47.2612 93.616 45.6292 95.248 43.1812 95.248C40.7812 95.248 39.1972 93.616 39.1972 91.216ZM106.344 70.432C106.344 74.8 104.424 78.16 101.112 80.032L106.2 90.064C107.064 91.792 106.968 93.952 104.904 95.056C102.84 96.112 100.632 95.248 99.6723 93.424L93.2403 81.616H85.5123V91.216C85.5123 93.616 83.8323 95.248 81.4323 95.248C79.0323 95.248 77.4003 93.616 77.4003 91.216V64.144C77.4003 60.928 78.9363 59.392 82.1043 59.392H94.2003C101.544 59.392 106.344 63.568 106.344 70.432ZM85.5123 65.776V75.232H92.4243C96.0723 75.232 98.4243 73.84 98.4243 70.432C98.4243 67.024 96.1203 65.776 92.4243 65.776H85.5123ZM113.453 91.216V63.136C113.453 60.736 115.085 59.104 117.485 59.104C119.885 59.104 121.565 60.736 121.565 63.136V91.216C121.565 93.616 119.885 95.248 117.485 95.248C115.085 95.248 113.453 93.616 113.453 91.216ZM155.051 62.896C156.875 64.72 157.451 67.12 155.723 68.704C154.091 70.24 151.739 69.52 149.819 67.888C147.755 66.16 145.739 65.152 142.523 65.152C139.739 65.152 137.243 65.968 137.243 68.704C137.243 71.344 139.595 72.352 142.235 73.072L148.907 74.896C154.907 76.528 158.171 79.312 158.171 85.216C158.171 91.168 152.651 95.68 143.771 95.68C137.915 95.68 132.539 93.712 129.659 90.064C128.075 88.096 127.643 85.744 129.611 84.304C131.627 82.816 133.739 83.536 135.563 85.552C137.771 88 140.987 89.2 144.251 89.2C147.323 89.2 150.251 87.76 150.251 85.216C150.251 83.056 149.195 81.952 146.843 81.28L138.923 79.12C133.643 77.68 129.515 74.464 129.515 68.896C129.515 61.84 135.611 58.672 142.667 58.672C148.139 58.672 152.363 60.16 155.051 62.896ZM172.913 91.216V66.544H165.185C162.833 66.544 161.057 65.344 161.057 62.944C161.057 60.592 162.833 59.392 165.185 59.392H188.609C190.913 59.392 192.737 60.592 192.737 62.944C192.737 65.344 190.913 66.544 188.609 66.544H180.833V91.216C180.833 93.616 179.297 95.248 176.897 95.248C174.497 95.248 172.913 93.616 172.913 91.216ZM216.724 85.168L223.684 63.136C224.644 60.112 226.612 59.104 229.636 59.104C233.188 59.104 235.108 60.832 235.108 64.432V91.408C235.108 93.664 233.764 95.248 231.508 95.248C229.252 95.248 227.908 93.664 227.908 91.408V70.96H227.812L220.468 92.416C219.94 94.096 218.5 95.008 216.676 95.008C214.852 95.008 213.412 94.096 212.884 92.416L205.54 70.96H205.444V91.408C205.444 93.664 204.1 95.248 201.844 95.248C199.588 95.248 198.244 93.664 198.244 91.408V64.432C198.244 60.832 200.164 59.104 203.716 59.104C206.74 59.104 208.708 60.112 209.668 63.136L216.628 85.168H216.724ZM257.595 59.104C260.043 59.104 261.627 60.304 262.443 62.272L273.963 90.208C274.827 92.32 273.867 94.384 271.611 95.056C269.451 95.776 267.435 94.576 266.571 92.368L264.411 86.704H250.731L248.619 92.368C247.755 94.576 245.739 95.776 243.531 95.056C241.323 94.384 240.363 92.32 241.227 90.208L252.747 62.272C253.563 60.304 255.147 59.104 257.595 59.104ZM257.499 68.8L253.275 79.984H261.915L257.691 68.8H257.499ZM304.676 62.896C306.5 64.72 307.076 67.12 305.348 68.704C303.716 70.24 301.364 69.52 299.444 67.888C297.38 66.16 295.364 65.152 292.148 65.152C289.364 65.152 286.868 65.968 286.868 68.704C286.868 71.344 289.22 72.352 291.86 73.072L298.532 74.896C304.532 76.528 307.796 79.312 307.796 85.216C307.796 91.168 302.276 95.68 293.396 95.68C287.54 95.68 282.164 93.712 279.284 90.064C277.7 88.096 277.268 85.744 279.236 84.304C281.252 82.816 283.364 83.536 285.188 85.552C287.396 88 290.612 89.2 293.876 89.2C296.948 89.2 299.876 87.76 299.876 85.216C299.876 83.056 298.82 81.952 296.468 81.28L288.548 79.12C283.268 77.68 279.14 74.464 279.14 68.896C279.14 61.84 285.236 58.672 292.292 58.672C297.764 58.672 301.988 60.16 304.676 62.896ZM314.5 93.136C314.5 90.832 316.372 88.912 318.724 88.912C321.028 88.912 322.948 90.832 322.948 93.136C322.948 95.488 321.028 97.408 318.724 97.408C316.372 97.408 314.5 95.488 314.5 93.136ZM314.692 81.136V62.176C314.692 59.776 316.324 58.144 318.724 58.144C321.124 58.144 322.804 59.776 322.804 62.176V81.136C322.804 83.536 321.124 85.168 318.724 85.168C316.324 85.168 314.692 83.536 314.692 81.136Z" fill="#191919"/>
</svg>
