<svg width="16" height="16" viewBox="0 0 16 16" fill="none" xmlns="http://www.w3.org/2000/svg">
<path fill-rule="evenodd" clip-rule="evenodd" d="M4.04036 2.6259C3.64983 2.23538 3.01667 2.23538 2.62615 2.6259C2.23562 3.01643 2.23562 3.64959 2.62615 4.04011L6.58571 7.99967L2.62615 11.9592C2.23562 12.3498 2.23562 12.9829 2.62615 13.3734C3.01667 13.764 3.64983 13.764 4.04036 13.3734L7.99992 9.41389L11.9595 13.3734C12.35 13.764 12.9832 13.764 13.3737 13.3734C13.7642 12.9829 13.7642 12.3498 13.3737 11.9592L9.41413 7.99967L13.3737 4.04011C13.7642 3.64959 13.7642 3.01643 13.3737 2.6259C12.9832 2.23538 12.35 2.23538 11.9595 2.6259L7.99992 6.58546L4.04036 2.6259Z" fill="currentColor"/>
</svg>
