<svg width="83" height="71" viewBox="0 0 83 71" fill="none" xmlns="http://www.w3.org/2000/svg">
<g filter="url(#filter0_i_1880_6941)">
<path fill-rule="evenodd" clip-rule="evenodd" d="M39.433 2.65111C42.3811 -0.626209 47.4388 -0.902958 50.7296 2.03298L83.8331 31.5659C85.5271 33.0772 86.4951 35.2351 86.4951 37.5C86.4951 39.7649 85.5271 41.9228 83.8331 43.4341L50.7296 72.967C47.4388 75.903 42.3811 75.6262 39.433 72.3489C36.4849 69.0716 36.7628 64.0347 40.0537 61.0988L57.5753 45.467H8.5C4.08172 45.467 0.5 41.9001 0.5 37.5C0.5 33.0999 4.08172 29.533 8.5 29.533L57.5753 29.533L40.0537 13.9012C36.7628 10.9653 36.4849 5.92843 39.433 2.65111Z" fill="url(#paint0_linear_1880_6941)"/>
</g>
<defs>
<filter id="filter0_i_1880_6941" x="0.5" y="0" width="85.9951" height="78" filterUnits="userSpaceOnUse" color-interpolation-filters="sRGB">
<feFlood flood-opacity="0" result="BackgroundImageFix"/>
<feBlend mode="normal" in="SourceGraphic" in2="BackgroundImageFix" result="shape"/>
<feColorMatrix in="SourceAlpha" type="matrix" values="0 0 0 0 0 0 0 0 0 0 0 0 0 0 0 0 0 0 127 0" result="hardAlpha"/>
<feOffset dy="3"/>
<feGaussianBlur stdDeviation="2"/>
<feComposite in2="hardAlpha" operator="arithmetic" k2="-1" k3="1"/>
<feColorMatrix type="matrix" values="0 0 0 0 1 0 0 0 0 1 0 0 0 0 1 0 0 0 0.6 0"/>
<feBlend mode="normal" in2="shape" result="effect1_innerShadow_1880_6941"/>
</filter>
<linearGradient id="paint0_linear_1880_6941" x1="3.46535" y1="-12.2845" x2="49.097" y2="66.5463" gradientUnits="userSpaceOnUse">
<stop offset="0.203125" stop-color="#FFD5D2"/>
<stop offset="1" stop-color="#FD7562"/>
</linearGradient>
</defs>
</svg>
