<svg width="63" height="62" viewBox="0 0 63 62" fill="none" xmlns="http://www.w3.org/2000/svg">
<path d="M33.0812 23.3452C32.6988 23.2952 32.3094 23.266 31.9132 23.2539H31.865H31.1449H31.0967C30.7005 23.266 30.3094 23.2952 29.927 23.3452C26.1251 23.8034 21.9769 25.8448 18.5316 29.2901C12.1061 35.7139 10.5575 44.5821 15.0708 49.1006C17.9632 51.993 22.6505 52.3926 27.3224 50.6183C30.0172 49.5968 32.9927 49.5968 35.6876 50.6183C40.3663 52.3926 45.0467 51.9964 47.9391 49.1006C52.4524 44.5873 50.902 35.719 44.4783 29.2901C41.033 25.8448 36.8848 23.8034 33.0812 23.3452Z" fill="currentColor"/>
<path d="M31.5049 20.6699C34.3591 20.6699 36.6728 18.3561 36.6728 15.5019C36.6728 12.6478 34.3591 10.334 31.5049 10.334C28.6507 10.334 26.3369 12.6478 26.3369 15.5019C26.3369 18.3561 28.6507 20.6699 31.5049 20.6699Z" fill="currentColor"/>
<path d="M16.001 25.8418C18.8552 25.8418 21.1689 23.528 21.1689 20.6738C21.1689 17.8196 18.8552 15.5059 16.001 15.5059C13.1468 15.5059 10.833 17.8196 10.833 20.6738C10.833 23.528 13.1468 25.8418 16.001 25.8418Z" fill="currentColor"/>
<path d="M47.0088 25.8418C49.863 25.8418 52.1767 23.528 52.1767 20.6738C52.1767 17.8196 49.863 15.5059 47.0088 15.5059C44.1546 15.5059 41.8408 17.8196 41.8408 20.6738C41.8408 23.528 44.1546 25.8418 47.0088 25.8418Z" fill="currentColor"/>
</svg>
