<svg width="65" height="65" viewBox="0 0 65 65" fill="none" xmlns="http://www.w3.org/2000/svg">
<path d="M34.1583 24.4736C33.7574 24.4213 33.3492 24.3906 32.9338 24.3779H32.8833H32.1284H32.0778C31.6624 24.3906 31.2524 24.4213 30.8515 24.4736C26.8656 24.954 22.5168 27.0942 18.9047 30.7062C12.1683 37.4408 10.5447 46.7381 15.2765 51.4753C18.3088 54.5076 23.2229 54.9266 28.1208 53.0664C30.9461 51.9954 34.0656 51.9954 36.8908 53.0664C41.7959 54.9266 46.7028 54.5112 49.7351 51.4753C54.4669 46.7435 52.8415 37.4462 46.1069 30.7062C42.4948 27.0942 38.146 24.954 34.1583 24.4736Z" fill="#191919"/>
<path d="M32.5059 21.6691C35.4982 21.6691 37.9239 19.2433 37.9239 16.251C37.9239 13.2587 35.4982 10.833 32.5059 10.833C29.5136 10.833 27.0879 13.2587 27.0879 16.251C27.0879 19.2433 29.5136 21.6691 32.5059 21.6691Z" fill="#191919"/>
<path d="M16.252 27.0909C19.2443 27.0909 21.67 24.6652 21.67 21.6729C21.67 18.6806 19.2443 16.2549 16.252 16.2549C13.2597 16.2549 10.834 18.6806 10.834 21.6729C10.834 24.6652 13.2597 27.0909 16.252 27.0909Z" fill="#191919"/>
<path d="M48.7598 27.0909C51.7521 27.0909 54.1778 24.6652 54.1778 21.6729C54.1778 18.6806 51.7521 16.2549 48.7598 16.2549C45.7675 16.2549 43.3418 18.6806 43.3418 21.6729C43.3418 24.6652 45.7675 27.0909 48.7598 27.0909Z" fill="#191919"/>
</svg>
