<svg width="167" height="167" viewBox="0 0 167 167" fill="none" xmlns="http://www.w3.org/2000/svg">
<path d="M87.7587 62.8807C86.7287 62.7461 85.68 62.6672 84.6128 62.6348H84.4829H82.5433H82.4134C81.3462 62.6672 80.2929 62.7461 79.2628 62.8807C69.0222 64.1149 57.8489 69.6134 48.5688 78.8935C31.2614 96.1963 27.09 120.083 39.247 132.254C47.0376 140.045 59.6632 141.121 72.247 136.342C79.5057 133.591 87.5205 133.591 94.7792 136.342C107.382 141.121 119.989 140.054 127.779 132.254C139.936 120.097 135.76 96.2102 118.457 78.8935C109.177 69.6134 98.004 64.1149 87.7587 62.8807Z" fill="currentColor"/>
<path d="M83.5134 55.6743C91.2013 55.6743 97.4336 49.442 97.4336 41.7541C97.4336 34.0663 91.2013 27.834 83.5134 27.834C75.8255 27.834 69.5933 34.0663 69.5933 41.7541C69.5933 49.442 75.8255 55.6743 83.5134 55.6743Z" fill="currentColor"/>
<path d="M41.7527 69.604C49.4406 69.604 55.6728 63.3717 55.6728 55.6838C55.6728 47.9959 49.4406 41.7637 41.7527 41.7637C34.0648 41.7637 27.8325 47.9959 27.8325 55.6838C27.8325 63.3717 34.0648 69.604 41.7527 69.604Z" fill="currentColor"/>
<path d="M125.274 69.604C132.962 69.604 139.194 63.3717 139.194 55.6838C139.194 47.9959 132.962 41.7637 125.274 41.7637C117.586 41.7637 111.354 47.9959 111.354 55.6838C111.354 63.3717 117.586 69.604 125.274 69.604Z" fill="currentColor"/>
<defs>
<linearGradient id="paint0_linear_5154_26792" x1="32.2823" y1="100.911" x2="134.739" y2="100.911" gradientUnits="userSpaceOnUse">
<stop stop-color="#FF6354"/>
<stop offset="0.29" stop-color="#FF5A4B"/>
<stop offset="0.78" stop-color="#FF4032"/>
<stop offset="0.99" stop-color="#FF3325"/>
</linearGradient>
<linearGradient id="paint1_linear_5154_26792" x1="69.5933" y1="41.7541" x2="97.4336" y2="41.7541" gradientUnits="userSpaceOnUse">
<stop stop-color="#FF6354"/>
<stop offset="0.29" stop-color="#FF5A4B"/>
<stop offset="0.78" stop-color="#FF4032"/>
<stop offset="0.99" stop-color="#FF3325"/>
</linearGradient>
<linearGradient id="paint2_linear_5154_26792" x1="27.8325" y1="55.6838" x2="55.6728" y2="55.6838" gradientUnits="userSpaceOnUse">
<stop stop-color="#FF6354"/>
<stop offset="0.29" stop-color="#FF5A4B"/>
<stop offset="0.78" stop-color="#FF4032"/>
<stop offset="0.99" stop-color="#FF3325"/>
</linearGradient>
<linearGradient id="paint3_linear_5154_26792" x1="111.354" y1="55.6838" x2="139.194" y2="55.6838" gradientUnits="userSpaceOnUse">
<stop stop-color="#FF6354"/>
<stop offset="0.29" stop-color="#FF5A4B"/>
<stop offset="0.78" stop-color="#FF4032"/>
<stop offset="0.99" stop-color="#FF3325"/>
</linearGradient>
</defs>
</svg>
