<svg width="157" height="35" viewBox="0 0 157 35" fill="none" xmlns="http://www.w3.org/2000/svg">
<path d="M23.5777 7.97487C22.6858 6.54135 21.402 5.39516 19.8792 4.67279C18.1913 3.87127 16.3421 3.47067 14.4749 3.50205H5.9168C5.51223 3.48492 5.10868 3.55451 4.73304 3.70618C4.3574 3.85785 4.01829 4.0881 3.73835 4.38161C3.16964 5.00907 2.87163 5.83685 2.90946 6.68406V28.8981C2.89869 29.4743 3.02919 30.0443 3.28949 30.5581C3.52921 31.0254 3.8953 31.4156 4.34581 31.6838C4.8241 31.9564 5.36685 32.0943 5.9168 32.0831C6.32406 32.1005 6.73037 32.0311 7.10896 31.8795C7.48754 31.7279 7.82981 31.4975 8.11318 31.2035C8.68042 30.5742 8.97721 29.7457 8.93908 28.8981V22.3659H14.4749C16.3424 22.4011 18.1931 22.0068 19.8851 21.2132C21.4106 20.4949 22.6954 19.3478 23.5837 17.9111C24.4565 16.4013 24.9162 14.6869 24.9162 12.9415C24.9162 11.1961 24.4565 9.48174 23.5837 7.97188L23.5777 7.97487ZM18.1376 14.7892C17.8221 15.3237 17.3612 15.7569 16.809 16.038C16.2022 16.3466 15.5292 16.5012 14.849 16.4882H8.93308V9.37976H14.849C15.5292 9.36679 16.2022 9.5214 16.809 9.83004C17.3612 10.1111 17.8221 10.5443 18.1376 11.0788C18.4496 11.6471 18.6132 12.2853 18.6132 12.934C18.6132 13.5827 18.4496 14.2209 18.1376 14.7892Z" fill="#4D4D4D"/>
<path d="M43.9432 7.79785C43.5724 6.81691 43.083 5.88535 42.4859 5.02411C42.0158 4.35814 41.3928 3.81551 40.6695 3.44211C39.8797 3.09561 39.027 2.91675 38.1649 2.91675C37.3029 2.91675 36.4502 3.09561 35.6603 3.44211C34.9324 3.81341 34.305 4.35626 33.832 5.02411C33.2389 5.88399 32.7573 6.81605 32.3986 7.79785L24.7142 27.2081C24.5706 27.572 24.4584 27.9476 24.3791 28.3308C24.3157 28.6431 24.2817 28.9607 24.2774 29.2794C24.2752 29.7814 24.4097 30.2744 24.6664 30.7053C24.9198 31.1421 25.279 31.5076 25.7107 31.768C26.137 32.0318 26.6282 32.1711 27.1291 32.1702C27.7959 32.1952 28.4548 32.0184 29.0203 31.6629C29.5407 31.3003 29.931 30.7793 30.1334 30.177L31.8181 25.6741H44.5177L46.2054 30.177C46.3981 30.7819 46.7867 31.3049 47.3096 31.6629C47.8787 32.0176 48.5402 32.1942 49.2097 32.1702C49.7106 32.1711 50.2018 32.0318 50.6281 31.768C51.0598 31.5076 51.4191 31.1421 51.6725 30.7053C51.9301 30.2746 52.0656 29.7816 52.0644 29.2794C52.0465 28.5676 51.8973 27.8654 51.6246 27.2081L43.9432 7.79785ZM34.0145 19.8264L38.1619 8.77046L42.3034 19.8264H34.0145Z" fill="#4D4D4D"/>
<path d="M89.6876 3.45402C89.1988 3.17299 88.644 3.02792 88.0807 3.03376C87.3539 3.01277 86.6441 3.25583 86.0818 3.71819C85.529 4.18697 85.1592 4.83657 85.0375 5.55234L80.9888 25.0646L76.2878 7.44354C76.0138 6.24122 75.4226 5.13491 74.5761 4.24051C73.7986 3.46565 72.7471 3.03076 71.6511 3.03076C70.5551 3.03076 69.5036 3.46565 68.7261 4.24051C67.8757 5.13343 67.2813 6.24 67.0055 7.44354L62.3254 25.0646L58.2767 5.55234C58.1651 4.83229 57.7921 4.17905 57.2294 3.71819C56.6661 3.25981 55.9587 3.01723 55.2335 3.03376C54.667 3.02512 54.1087 3.17033 53.6177 3.45402C53.14 3.72874 52.7403 4.12142 52.4566 4.59475C52.1654 5.07802 52.0141 5.63309 52.0197 6.19775C52.0164 6.61767 52.0606 7.03661 52.1514 7.44654L56.5651 26.4485C56.7733 27.5004 57.1621 28.5081 57.7142 29.4264C58.1945 30.2323 58.8566 30.914 59.6472 31.4166C60.5983 32.0092 61.7282 32.2439 62.8356 32.0789C63.9431 31.914 64.9563 31.3602 65.6948 30.5161C66.6703 29.4414 67.3805 27.9605 67.8254 26.0733L71.6556 11.0008L75.4888 26.0733C75.9317 27.9625 76.6299 29.4434 77.5835 30.5161C78.0197 31.0286 78.5629 31.4386 79.1747 31.7172C79.7864 31.9957 80.4517 32.136 81.1234 32.1281C82.017 32.1375 82.8946 31.8896 83.652 31.4137C84.4412 30.9093 85.0996 30.224 85.5731 29.4144C86.1207 28.484 86.5129 27.47 86.7341 26.4125L91.1448 7.43153C91.1965 7.20931 91.2315 6.98355 91.2496 6.7561C91.2705 6.53096 91.2795 6.33884 91.2795 6.18274C91.2851 5.61807 91.1338 5.06301 90.8426 4.57973C90.5586 4.11265 90.1612 3.72537 89.6876 3.45402Z" fill="#4D4D4D"/>
<path d="M99.6277 3.43299C99.144 3.15772 98.5947 3.01971 98.0388 3.03374C97.6342 3.0168 97.2308 3.08648 96.8551 3.23813C96.4795 3.38979 96.1404 3.61994 95.8603 3.91329C95.2936 4.54174 94.9968 5.36911 95.0344 6.21575V28.907C95.0222 29.4834 95.1528 30.0538 95.4145 30.5671C95.6534 31.035 96.0197 31.4253 96.4708 31.6928C96.948 31.9652 97.4898 32.1032 98.0388 32.0921C98.4461 32.1096 98.8524 32.0403 99.2311 31.8887C99.6097 31.7371 99.9519 31.5066 100.235 31.2125C100.804 30.5841 101.102 29.7552 101.064 28.907V6.21575C101.076 5.63945 100.945 5.06922 100.684 4.5557C100.443 4.08986 100.077 3.70094 99.6277 3.43299Z" fill="#4D4D4D"/>
<path d="M126.886 3.88325C126.414 3.62443 125.883 3.49306 125.345 3.50202H107.43C106.889 3.49409 106.356 3.62534 105.88 3.88325C105.422 4.13184 105.046 4.50826 104.797 4.96694C104.532 5.45143 104.397 5.99648 104.405 6.54894C104.395 7.10728 104.531 7.65852 104.797 8.14895C105.046 8.60763 105.422 8.98404 105.88 9.23263C106.356 9.49054 106.889 9.62179 107.43 9.61386H113.364V28.907C113.352 29.4834 113.482 30.0538 113.744 30.5671C113.985 31.0362 114.355 31.4266 114.809 31.6928C115.291 31.9643 115.836 32.1021 116.389 32.092C116.793 32.1085 117.196 32.0387 117.571 31.887C117.946 31.7354 118.285 31.5054 118.565 31.2125C119.134 30.5841 119.432 29.7552 119.393 28.907V9.61386H125.345C125.883 9.62282 126.414 9.49145 126.886 9.23263C127.341 8.98265 127.714 8.60637 127.961 8.14895C128.227 7.65852 128.362 7.10728 128.353 6.54894C128.36 5.99648 128.225 5.45143 127.961 4.96694C127.714 4.50952 127.341 4.13323 126.886 3.88325Z" fill="#4D4D4D"/>
<path d="M155.085 4.55282C154.844 4.08454 154.474 3.69507 154.02 3.43012C153.539 3.15696 152.995 3.01901 152.443 3.03086C152.038 3.01373 151.635 3.08332 151.259 3.23499C150.883 3.38666 150.544 3.61691 150.264 3.91042C149.698 4.53886 149.401 5.36623 149.438 6.21287V14.5521H137.72V6.21588C137.732 5.63958 137.601 5.06935 137.34 4.55583C137.101 4.08933 136.734 3.70018 136.284 3.43312C135.801 3.15781 135.253 3.01978 134.698 3.03387C134.293 3.01674 133.89 3.08633 133.514 3.23799C133.139 3.38966 132.8 3.61992 132.52 3.91342C131.951 4.54088 131.653 5.36867 131.691 6.21588V28.9072C131.68 29.4834 131.81 30.0535 132.071 30.5672C132.31 31.0345 132.677 31.4247 133.127 31.6929C133.605 31.9655 134.148 32.1034 134.698 32.0922C135.105 32.1096 135.512 32.0402 135.89 31.8886C136.269 31.737 136.611 31.5066 136.894 31.2126C137.462 30.5833 137.758 29.7548 137.72 28.9072V20.4148H149.429V28.9072C149.417 29.4836 149.548 30.054 149.809 30.5672C150.047 31.035 150.412 31.4254 150.863 31.6929C151.341 31.9655 151.884 32.1034 152.434 32.0922C152.84 32.1079 153.244 32.0377 153.621 31.8862C153.998 31.7346 154.339 31.5051 154.621 31.2126C154.904 30.9022 155.124 30.5388 155.267 30.1433C155.411 29.7477 155.475 29.3276 155.456 28.9072V6.21588C155.471 5.63932 155.343 5.06804 155.085 4.55282Z" fill="#4D4D4D"/>
</svg>
