<svg width="111" height="26" viewBox="0 0 111 26" fill="none" xmlns="http://www.w3.org/2000/svg">
<path d="M13.6631 9.78926C13.5028 9.76831 13.3395 9.75603 13.1733 9.75098H13.1531H12.8511H12.8309C12.6648 9.75603 12.5008 9.76831 12.3404 9.78926C10.7461 9.98142 9.00651 10.8375 7.5617 12.2823C4.86714 14.9761 4.2177 18.6951 6.1104 20.5899C7.32331 21.8028 9.28897 21.9704 11.2481 21.2264C12.3782 20.798 13.626 20.798 14.7561 21.2264C16.7182 21.9704 18.6809 21.8043 19.8939 20.5899C21.7866 18.6972 21.1364 14.9783 18.4425 12.2823C16.9977 10.8375 15.2582 9.98142 13.6631 9.78926Z" fill="#F84D35"/>
<path d="M13.0022 8.66743C14.1991 8.66743 15.1694 7.69714 15.1694 6.50022C15.1694 5.3033 14.1991 4.33301 13.0022 4.33301C11.8053 4.33301 10.835 5.3033 10.835 6.50022C10.835 7.69714 11.8053 8.66743 13.0022 8.66743Z" fill="#F84D35"/>
<path d="M6.50022 10.8364C7.69714 10.8364 8.66743 9.86608 8.66743 8.66916C8.66743 7.47225 7.69714 6.50195 6.50022 6.50195C5.3033 6.50195 4.33301 7.47225 4.33301 8.66916C4.33301 9.86608 5.3033 10.8364 6.50022 10.8364Z" fill="#F84D35"/>
<path d="M19.5031 10.8364C20.7001 10.8364 21.6704 9.86608 21.6704 8.66916C21.6704 7.47225 20.7001 6.50195 19.5031 6.50195C18.3062 6.50195 17.3359 7.47225 17.3359 8.66916C17.3359 9.86608 18.3062 10.8364 19.5031 10.8364Z" fill="#F84D35"/>
<path d="M41.5262 8.10142C41.0661 7.36418 40.4037 6.77471 39.6181 6.40321C38.7473 5.991 37.7932 5.78497 36.8299 5.80111H32.4145C32.2058 5.7923 31.9976 5.82809 31.8038 5.90609C31.61 5.98409 31.4351 6.10251 31.2906 6.25345C30.9972 6.57615 30.8435 7.00187 30.863 7.43757V18.8619C30.8574 19.1583 30.9248 19.4514 31.0591 19.7157C31.1827 19.956 31.3716 20.1566 31.604 20.2946C31.8508 20.4347 32.1308 20.5057 32.4145 20.4999C32.6247 20.5089 32.8343 20.4732 33.0296 20.3952C33.2249 20.3172 33.4015 20.1988 33.5477 20.0476C33.8404 19.7239 33.9935 19.2978 33.9738 18.8619V15.5025H36.8299C37.7934 15.5206 38.7482 15.3178 39.6211 14.9097C40.4082 14.5403 41.071 13.9503 41.5293 13.2115C41.9796 12.435 42.2168 11.5533 42.2168 10.6557C42.2168 9.75806 41.9796 8.87638 41.5293 8.09988L41.5262 8.10142ZM38.7195 11.6059C38.5568 11.8808 38.319 12.1036 38.0341 12.2481C37.721 12.4069 37.3738 12.4864 37.0229 12.4797H33.9707V8.82393H37.0229C37.3738 8.81726 37.721 8.89678 38.0341 9.0555C38.319 9.20004 38.5568 9.42283 38.7195 9.69774C38.8805 9.98998 38.9649 10.3182 38.9649 10.6518C38.9649 10.9855 38.8805 11.3137 38.7195 11.6059Z" fill="#F84D35"/>
<path d="M52.0338 8.01028C51.8425 7.5058 51.59 7.02671 51.2819 6.58379C51.0394 6.24129 50.718 5.96222 50.3448 5.77018C49.9373 5.59199 49.4974 5.5 49.0526 5.5C48.6079 5.5 48.1679 5.59199 47.7604 5.77018C47.3849 5.96114 47.0612 6.24032 46.8171 6.58379C46.5112 7.02601 46.2627 7.50535 46.0777 8.01028L42.1131 17.9927C42.039 18.1798 41.9811 18.373 41.9402 18.5701C41.9075 18.7307 41.8899 18.894 41.8877 19.0579C41.8866 19.3161 41.956 19.5697 42.0884 19.7913C42.2191 20.0159 42.4045 20.2039 42.6272 20.3378C42.8472 20.4734 43.1006 20.5451 43.359 20.5446C43.703 20.5575 44.043 20.4666 44.3347 20.2837C44.6032 20.0973 44.8046 19.8293 44.909 19.5195L45.7782 17.2038H52.3302L53.2009 19.5195C53.3003 19.8306 53.5008 20.0996 53.7706 20.2837C54.0642 20.4662 54.4055 20.557 54.7509 20.5446C55.0093 20.5451 55.2627 20.4734 55.4827 20.3378C55.7054 20.2039 55.8907 20.0159 56.0215 19.7913C56.1544 19.5698 56.2243 19.3162 56.2237 19.0579C56.2144 18.6919 56.1375 18.3307 55.9968 17.9927L52.0338 8.01028ZM46.9113 14.1964L49.0511 8.51048L51.1877 14.1964H46.9113Z" fill="#F84D35"/>
<path d="M75.634 5.77627C75.3818 5.63174 75.0956 5.55713 74.805 5.56013C74.43 5.54934 74.0638 5.67434 73.7737 5.91213C73.4885 6.15321 73.2977 6.4873 73.2349 6.85541L71.1461 16.8903L68.7207 7.82802C68.5794 7.20968 68.2744 6.64073 67.8377 6.18075C67.4365 5.78225 66.894 5.55859 66.3286 5.55859C65.7631 5.55859 65.2207 5.78225 64.8195 6.18075C64.3808 6.63996 64.0741 7.20906 63.9318 7.82802L61.5172 16.8903L59.4284 6.85541C59.3708 6.48509 59.1784 6.14914 58.8881 5.91213C58.5975 5.67639 58.2325 5.55164 57.8584 5.56013C57.5661 5.55569 57.278 5.63037 57.0247 5.77627C56.7783 5.91755 56.5721 6.1195 56.4257 6.36293C56.2755 6.61147 56.1974 6.89693 56.2003 7.18733C56.1986 7.40329 56.2214 7.61875 56.2682 7.82957L58.5454 17.602C58.6528 18.143 58.8533 18.6612 59.1382 19.1335C59.386 19.548 59.7276 19.8985 60.1355 20.1571C60.6262 20.4618 61.2091 20.5825 61.7805 20.4977C62.3518 20.4128 62.8746 20.128 63.2556 19.6939C63.7589 19.1412 64.1253 18.3796 64.3548 17.409L66.3309 9.65746L68.3086 17.409C68.537 18.3806 68.8973 19.1422 69.3892 19.6939C69.6143 19.9575 69.8946 20.1683 70.2102 20.3116C70.5258 20.4549 70.869 20.527 71.2156 20.5229C71.6766 20.5278 72.1294 20.4003 72.5201 20.1555C72.9273 19.8961 73.267 19.5437 73.5113 19.1273C73.7938 18.6488 73.9961 18.1273 74.1103 17.5835L76.3859 7.82185C76.4125 7.70756 76.4306 7.59145 76.4399 7.47448C76.4507 7.3587 76.4554 7.25989 76.4554 7.17961C76.4582 6.88921 76.3802 6.60375 76.2299 6.35521C76.0834 6.11499 75.8784 5.91582 75.634 5.77627Z" fill="#F84D35"/>
<path d="M80.763 5.7652C80.5135 5.62363 80.2301 5.55266 79.9433 5.55987C79.7345 5.55116 79.5264 5.587 79.3326 5.66499C79.1388 5.74298 78.9638 5.86135 78.8193 6.01221C78.5269 6.33541 78.3738 6.76092 78.3932 7.19633V18.8661C78.3869 19.1626 78.4543 19.4559 78.5893 19.7199C78.7126 19.9605 78.9015 20.1613 79.1343 20.2988C79.3805 20.4389 79.66 20.5099 79.9433 20.5041C80.1534 20.5132 80.363 20.4776 80.5584 20.3996C80.7537 20.3216 80.9303 20.2031 81.0764 20.0518C81.3701 19.7286 81.5238 19.3024 81.5041 18.8661V7.19633C81.51 6.89995 81.4427 6.60669 81.308 6.3426C81.1838 6.10302 80.995 5.90301 80.763 5.7652Z" fill="#F84D35"/>
<path d="M94.8256 5.99707C94.582 5.86396 94.308 5.7964 94.0305 5.801H84.7876C84.5087 5.79692 84.2333 5.86443 83.9879 5.99707C83.7516 6.12491 83.5575 6.3185 83.429 6.55439C83.2924 6.80356 83.2228 7.08387 83.2268 7.36799C83.222 7.65514 83.2917 7.93863 83.429 8.19085C83.5575 8.42674 83.7516 8.62033 83.9879 8.74817C84.2333 8.88081 84.5087 8.94832 84.7876 8.94424H87.849V18.8664C87.8427 19.1629 87.9101 19.4562 88.0451 19.7202C88.1696 19.9614 88.3602 20.1622 88.5947 20.2991C88.8434 20.4387 89.1247 20.5096 89.4098 20.5044C89.6183 20.5129 89.8262 20.477 90.0197 20.399C90.2132 20.321 90.3879 20.2028 90.5322 20.0521C90.8258 19.7289 90.9796 19.3026 90.9598 18.8664V8.94424H94.0305C94.308 8.94884 94.582 8.88128 94.8256 8.74817C95.0601 8.61961 95.2526 8.4261 95.3798 8.19085C95.5172 7.93863 95.5869 7.65514 95.5821 7.36799C95.5861 7.08387 95.5164 6.80356 95.3798 6.55439C95.2526 6.31915 95.0601 6.12563 94.8256 5.99707Z" fill="#F84D35"/>
<path d="M109.374 6.34165C109.25 6.10082 109.059 5.90051 108.824 5.76426C108.577 5.62377 108.296 5.55283 108.011 5.55892C107.802 5.55011 107.594 5.5859 107.4 5.6639C107.206 5.7419 107.031 5.86032 106.887 6.01127C106.595 6.33447 106.441 6.75997 106.461 7.19539V11.4841H100.415V7.19693C100.421 6.90055 100.354 6.60729 100.219 6.34319C100.095 6.10328 99.9065 5.90314 99.6742 5.7658C99.4252 5.62421 99.1423 5.55322 98.8559 5.56047C98.6472 5.55166 98.439 5.58745 98.2452 5.66545C98.0514 5.74345 97.8765 5.86187 97.732 6.01281C97.4386 6.3355 97.2849 6.76122 97.3044 7.19693V18.8667C97.2988 19.1631 97.3662 19.4563 97.5005 19.7205C97.6241 19.9608 97.813 20.1615 98.0454 20.2994C98.2922 20.4396 98.5722 20.5105 98.8559 20.5047C99.0661 20.5137 99.2757 20.478 99.471 20.4C99.6663 20.3221 99.8429 20.2036 99.9891 20.0524C100.282 19.7287 100.435 19.3027 100.415 18.8667V14.4992H106.456V18.8667C106.45 19.1632 106.517 19.4565 106.652 19.7205C106.775 19.9611 106.963 20.1618 107.196 20.2994C107.442 20.4396 107.723 20.5105 108.006 20.5047C108.216 20.5128 108.424 20.4767 108.619 20.3988C108.813 20.3209 108.989 20.2028 109.135 20.0524C109.281 19.8928 109.394 19.7059 109.468 19.5024C109.542 19.299 109.575 19.083 109.565 18.8667V7.19693C109.573 6.90042 109.507 6.60662 109.374 6.34165Z" fill="#F84D35"/>
</svg>
