<svg width="16" height="16" viewBox="0 0 16 16" fill="none" xmlns="http://www.w3.org/2000/svg">
<path fill-rule="evenodd" clip-rule="evenodd" d="M7.25134 12.9412C7.25134 13.3547 7.58654 13.6899 8.00004 13.6899C8.41354 13.6899 8.74875 13.3547 8.74875 12.9412L8.74875 8.74874H12.9413C13.3548 8.74874 13.69 8.41353 13.69 8.00003C13.69 7.58653 13.3548 7.25132 12.9413 7.25132L8.74875 7.25132L8.74875 3.05879C8.74875 2.64529 8.41354 2.31008 8.00004 2.31008C7.58654 2.31008 7.25134 2.64529 7.25134 3.05879L7.25134 7.25132L3.05886 7.25132C2.64536 7.25132 2.31016 7.58653 2.31016 8.00003C2.31016 8.41353 2.64536 8.74874 3.05886 8.74874L7.25134 8.74874L7.25134 12.9412Z" fill="#4D4D4D"/>
</svg>
