<svg width="24" height="25" viewBox="0 0 24 25" fill="none" xmlns="http://www.w3.org/2000/svg">
<path fill-rule="evenodd" clip-rule="evenodd" d="M12 3.5C16.9706 3.5 21 7.52944 21 12.5C21 17.4706 16.9706 21.5 12 21.5C7.02944 21.5 3 17.4706 3 12.5C3 7.52944 7.02944 3.5 12 3.5ZM9 11.5C9.55228 11.5 10 11.0523 10 10.5C10 9.94772 9.55228 9.5 9 9.5C8.44772 9.5 8 9.94772 8 10.5C8 11.0523 8.44772 11.5 9 11.5ZM16 10.5C16 11.0523 15.5523 11.5 15 11.5C14.4477 11.5 14 11.0523 14 10.5C14 9.94772 14.4477 9.5 15 9.5C15.5523 9.5 16 9.94772 16 10.5ZM14.1213 15.6213C14.6839 15.0587 15 14.2956 15 13.5H12H9C9 14.2956 9.31607 15.0587 9.87868 15.6213C10.4413 16.1839 11.2044 16.5 12 16.5C12.7956 16.5 13.5587 16.1839 14.1213 15.6213Z" fill="#808080"/>
</svg>
