<svg width="44" height="44" viewBox="0 0 44 44" fill="none" xmlns="http://www.w3.org/2000/svg">
<path d="M30.5 22C30.7761 22 31.0014 22.224 30.9861 22.4998C30.8969 24.1042 30.3794 25.6589 29.4832 27.0001C28.4943 28.4802 27.0887 29.6337 25.4442 30.3149C23.7996 30.9961 21.99 31.1743 20.2442 30.8271C18.4984 30.4798 16.8947 29.6226 15.636 28.364C14.3774 27.1053 13.5202 25.5016 13.1729 23.7558C12.8257 22.01 13.0039 20.2004 13.6851 18.5558C14.3663 16.9113 15.5198 15.5057 16.9999 14.5168C18.3411 13.6206 19.8958 13.1031 21.5002 13.0139C21.776 12.9986 22 13.2239 22 13.5V16.1C22 16.3761 21.7757 16.5976 21.5007 16.6231C20.6089 16.7059 19.7489 17.0096 18.9999 17.5101C18.1119 18.1034 17.4198 18.9468 17.0111 19.9335C16.6023 20.9202 16.4954 22.006 16.7038 23.0535C16.9121 24.101 17.4264 25.0632 18.1816 25.8184C18.9368 26.5736 19.899 27.0879 20.9465 27.2962C21.994 27.5046 23.0798 27.3977 24.0665 26.9889C25.0532 26.5802 25.8966 25.8881 26.4899 25.0001C26.9904 24.2511 27.2941 23.3911 27.3769 22.4993C27.4024 22.2243 27.6239 22 27.9 22H30.5Z" fill="#B3B3B3"/>
<path opacity="0.6" d="M30.237 19.9019C30.5046 19.8337 30.6676 19.561 30.5847 19.2976C30.1836 18.0233 29.5031 16.8522 28.5904 15.8709C27.6778 14.8896 26.5591 14.126 25.3172 13.6336C25.0605 13.5319 24.7767 13.6747 24.6893 13.9367L23.8667 16.4031C23.7793 16.665 23.9221 16.9461 24.1748 17.0573C24.8463 17.3528 25.4523 17.7828 25.9543 18.3225C26.4563 18.8623 26.8412 19.4978 27.0872 20.1889C27.1799 20.4491 27.4498 20.6118 27.7174 20.5436L30.237 19.9019Z" fill="#B3B3B3"/>
</svg>
