<svg width="28" height="28" viewBox="0 0 28 28" fill="none" xmlns="http://www.w3.org/2000/svg">
<path fill-rule="evenodd" clip-rule="evenodd" d="M23.3337 13.9993C23.3337 16.4747 22.3503 18.8487 20.6 20.599C18.8497 22.3494 16.4757 23.3327 14.0003 23.3327C11.525 23.3327 9.151 22.3494 7.40066 20.599C5.65032 18.8487 4.66699 16.4747 4.66699 13.9993C4.66699 11.524 5.65032 9.15003 7.40066 7.39969C9.151 5.64935 11.525 4.66602 14.0003 4.66602C16.4757 4.66602 18.8497 5.64935 20.6 7.39969C22.3503 9.15003 23.3337 11.524 23.3337 13.9993ZM14.0003 10.4993C13.7953 10.4991 13.5939 10.553 13.4163 10.6554C13.2388 10.7578 13.0913 10.9052 12.9888 11.0827C12.9148 11.2202 12.814 11.3415 12.6922 11.4393C12.5705 11.5371 12.4303 11.6095 12.2801 11.6521C12.1299 11.6948 11.9726 11.7068 11.8176 11.6876C11.6626 11.6683 11.5131 11.6182 11.3779 11.54C11.2426 11.4619 11.1245 11.3574 11.0304 11.2328C10.9363 11.1082 10.8682 10.9659 10.8301 10.8144C10.792 10.663 10.7847 10.5054 10.8086 10.3511C10.8325 10.1968 10.8872 10.0488 10.9693 9.91602C11.3546 9.24881 11.9492 8.72737 12.661 8.43256C13.3728 8.13774 14.162 8.08603 14.9062 8.28543C15.6504 8.48484 16.308 8.92423 16.777 9.53545C17.246 10.1467 17.5003 10.8956 17.5003 11.666C17.5005 12.3901 17.2763 13.0964 16.8584 13.6877C16.4405 14.279 15.8496 14.7262 15.167 14.9677V15.166C15.167 15.4754 15.0441 15.7722 14.8253 15.991C14.6065 16.2098 14.3097 16.3327 14.0003 16.3327C13.6909 16.3327 13.3942 16.2098 13.1754 15.991C12.9566 15.7722 12.8337 15.4754 12.8337 15.166V13.9993C12.8337 13.6899 12.9566 13.3932 13.1754 13.1744C13.3942 12.9556 13.6909 12.8327 14.0003 12.8327C14.3097 12.8327 14.6065 12.7098 14.8253 12.491C15.0441 12.2722 15.167 11.9754 15.167 11.666C15.167 11.3566 15.0441 11.0599 14.8253 10.8411C14.6065 10.6223 14.3097 10.4993 14.0003 10.4993ZM14.0003 19.8327C14.3097 19.8327 14.6065 19.7098 14.8253 19.491C15.0441 19.2722 15.167 18.9754 15.167 18.666C15.167 18.3566 15.0441 18.0599 14.8253 17.8411C14.6065 17.6223 14.3097 17.4994 14.0003 17.4994C13.6909 17.4994 13.3942 17.6223 13.1754 17.8411C12.9566 18.0599 12.8337 18.3566 12.8337 18.666C12.8337 18.9754 12.9566 19.2722 13.1754 19.491C13.3942 19.7098 13.6909 19.8327 14.0003 19.8327Z" fill="#B3B3B3"/>
</svg>
