<svg width="24" height="24" viewBox="0 0 24 24" fill="none" xmlns="http://www.w3.org/2000/svg">
<path d="M20.5 12C20.7761 12 21.0014 12.224 20.9861 12.4998C20.8969 14.1042 20.3794 15.6589 19.4832 17.0001C18.4943 18.4802 17.0887 19.6337 15.4442 20.3149C13.7996 20.9961 11.99 21.1743 10.2442 20.8271C8.49836 20.4798 6.89471 19.6226 5.63604 18.364C4.37737 17.1053 3.5202 15.5016 3.17293 13.7558C2.82567 12.01 3.0039 10.2004 3.68508 8.55585C4.36627 6.91131 5.51983 5.50571 6.99987 4.51677C8.34106 3.62062 9.89577 3.1031 11.5002 3.01388C11.776 2.99855 12 3.22386 12 3.5V6.1C12 6.37614 11.7757 6.5976 11.5007 6.62313C10.6089 6.70593 9.74893 7.00959 8.99992 7.51006C8.1119 8.10342 7.41976 8.94679 7.01105 9.93351C6.60234 10.9202 6.4954 12.006 6.70376 13.0535C6.91212 14.101 7.42642 15.0632 8.18162 15.8184C8.93683 16.5736 9.89901 17.0879 10.9465 17.2962C11.994 17.5046 13.0798 17.3977 14.0665 16.9889C15.0532 16.5802 15.8966 15.8881 16.4899 15.0001C16.9904 14.2511 17.2941 13.3911 17.3769 12.4993C17.4024 12.2243 17.6239 12 17.9 12H20.5Z" fill="#B3B3B3"/>
<path opacity="0.6" d="M20.237 9.90186C20.5046 9.8337 20.6676 9.56097 20.5847 9.29757C20.1836 8.0233 19.5031 6.85218 18.5904 5.87088C17.6778 4.88957 16.5591 4.12601 15.3172 3.63363C15.0605 3.53185 14.7767 3.6747 14.6893 3.93665L13.8667 6.40309C13.7793 6.66505 13.9221 6.9461 14.1748 7.05732C14.8463 7.35279 15.4523 7.78275 15.9543 8.32253C16.4563 8.8623 16.8412 9.49779 17.0872 10.1889C17.1799 10.4491 17.4498 10.6118 17.7174 10.5436L20.237 9.90186Z" fill="#B3B3B3"/>
</svg>
