<svg width="16" height="16" viewBox="0 0 16 16" fill="none" xmlns="http://www.w3.org/2000/svg">
<path fill-rule="evenodd" clip-rule="evenodd" d="M9.32803 4.06953C8.37499 3.74742 7.33735 3.78264 6.40834 4.16864C5.47933 4.55463 4.72226 5.2651 4.27809 6.16775C3.83392 7.07039 3.73292 8.1037 3.99391 9.07526C4.2549 10.0468 4.86009 10.8904 5.69678 11.449C6.53347 12.0076 7.54464 12.243 8.54202 12.1116C9.53941 11.9801 10.455 11.4906 11.1184 10.7343C11.7817 9.97796 12.1476 9.00634 12.1479 8.00033L12.148 7.40776L13.3332 7.4081L13.333 8.00067C13.3327 9.29411 12.8622 10.5433 12.0094 11.5158C11.1565 12.4882 9.97927 13.1175 8.69692 13.2865C7.41458 13.4556 6.11449 13.1528 5.03875 12.4347C3.963 11.7165 3.18491 10.6319 2.84935 9.38272C2.51379 8.13357 2.64364 6.80503 3.21472 5.64449C3.78579 4.48394 4.75917 3.57049 5.95361 3.07421C7.14806 2.57792 8.48216 2.53264 9.7075 2.94679C10.3954 3.17928 11.0227 3.54767 11.5553 4.02409V2.66732H12.7405V5.63017C12.7405 5.95744 12.4752 6.22274 12.1479 6.22274H9.18505V5.0376H10.9042C10.4617 4.60367 9.92412 4.271 9.32803 4.06953Z" fill="#4D4D4D"/>
</svg>
