<svg width="18" height="18" viewBox="0 0 18 18" fill="none" xmlns="http://www.w3.org/2000/svg">
<path fill-rule="evenodd" clip-rule="evenodd" d="M2.5 7.50075C2.5 4.46277 4.96277 2 8.00075 2C11.0387 2 13.5015 4.46277 13.5015 7.50075C13.5015 10.5387 11.0387 13.0015 8.00075 13.0015C4.96277 13.0015 2.5 10.5387 2.5 7.50075ZM8.00075 0C3.8582 0 0.5 3.3582 0.5 7.50075C0.5 11.6433 3.8582 15.0015 8.00075 15.0015C9.71153 15.0015 11.2885 14.4288 12.5505 13.4646L15.8905 16.8045C16.281 17.195 16.9141 17.195 17.3047 16.8045C17.6952 16.414 17.6952 15.7808 17.3047 15.3903L13.9647 12.0503C14.9288 10.7884 15.5015 9.21145 15.5015 7.50075C15.5015 3.3582 12.1433 0 8.00075 0Z" fill="#4D4D4D"/>
</svg>
