<svg width="24" height="24" viewBox="0 0 24 24" fill="none" xmlns="http://www.w3.org/2000/svg">
<path fill-rule="evenodd" clip-rule="evenodd" d="M10.286 2.85742H13.7146L14.153 5.48784C14.5416 5.61625 14.9149 5.77847 15.2693 5.97103L17.3876 4.45794L19.5426 6.61293L18.0295 8.73125C18.2221 9.08565 18.3843 9.45893 18.5127 9.84759L21.1431 10.286V13.7146L18.5127 14.153C18.3843 14.5416 18.2221 14.9149 18.0295 15.2693L19.5426 17.3876L17.3876 19.5426L15.2693 18.0295C14.9149 18.2221 14.5416 18.3843 14.153 18.5127L13.7146 21.1431H10.286L9.84759 18.5127C9.45893 18.3843 9.08566 18.2221 8.73126 18.0295L6.61293 19.5426L4.45794 17.3876L5.97103 15.2693C5.77847 14.9149 5.61625 14.5416 5.48784 14.153L2.85742 13.7146V10.286L5.48784 9.84759C5.61625 9.45893 5.77847 9.08566 5.97103 8.73126L4.45794 6.61293L6.61293 4.45794L8.73125 5.97103C9.08565 5.77847 9.45893 5.61625 9.84759 5.48784L10.286 2.85742ZM12.0003 13.8574C13.026 13.8574 13.8574 13.026 13.8574 12.0003C13.8574 10.9746 13.026 10.1431 12.0003 10.1431C10.9746 10.1431 10.1431 10.9746 10.1431 12.0003C10.1431 13.026 10.9746 13.8574 12.0003 13.8574Z" fill="#B3B3B3"/>
</svg>
