<svg width="32" height="32" viewBox="0 0 32 32" fill="none" xmlns="http://www.w3.org/2000/svg">
<rect width="32" height="32" rx="16" fill="white"/>
<path fill-rule="evenodd" clip-rule="evenodd" d="M17.3283 12.0695C16.3752 11.7474 15.3376 11.7826 14.4086 12.1686C13.4796 12.5546 12.7225 13.2651 12.2783 14.1677C11.8342 15.0704 11.7332 16.1037 11.9942 17.0753C12.2551 18.0468 12.8603 18.8904 13.697 19.449C14.5337 20.0076 15.5449 20.243 16.5423 20.1116C17.5396 19.9801 18.4553 19.4906 19.1186 18.7343C19.782 17.978 20.1478 17.0063 20.1481 16.0003L20.1483 15.4078L21.3334 15.4081L21.3333 16.0007C21.3329 17.2941 20.8625 18.5433 20.0096 19.5158C19.1567 20.4882 17.9795 21.1175 16.6972 21.2865C15.4148 21.4556 14.1147 21.1528 13.039 20.4347C11.9632 19.7165 11.1852 18.6319 10.8496 17.3827C10.514 16.1336 10.6439 14.805 11.215 13.6445C11.786 12.4839 12.7594 11.5705 13.9539 11.0742C15.1483 10.5779 16.4824 10.5326 17.7077 10.9468C18.3956 11.1793 19.0229 11.5477 19.5556 12.0241V10.6673H20.7407V13.6302C20.7407 13.9574 20.4754 14.2227 20.1481 14.2227H17.1853V13.0376H18.9045C18.462 12.6037 17.9244 12.271 17.3283 12.0695Z" fill="#4D4D4D"/>
<rect x="0.5" y="0.5" width="31" height="31" rx="15.5" stroke="black" stroke-opacity="0.12"/>
</svg>
